<svg id="Capa_1" enable-background="new 0 0 512 512" height="512" viewBox="0 0 512 512" width="512" xmlns="http://www.w3.org/2000/svg"><g><path d="m256 330h-45v167c0 8.284 6.716 15 15 15h30 30c8.284 0 15-6.716 15-15v-167z" fill="#dce7f5"/><path d="m301 497v-167h-45v182h30c8.284 0 15-6.716 15-15z" fill="#c8d6ef"/><circle cx="256" cy="195" fill="#ff637b" r="195"/><path d="m451 195c0-107.695-87.305-195-195-195v390c107.695 0 195-87.305 195-195z" fill="#e63950"/><g><path d="m298.426 195 63.64-63.64c5.863-5.863 5.863-15.35 0-21.213l-21.213-21.213c-5.863-5.863-15.352-5.863-21.213 0l-63.64 63.639-63.64-63.638c-5.861-5.863-15.35-5.863-21.213 0l-21.213 21.213c-5.863 5.863-5.863 15.35 0 21.213l63.64 63.64-63.64 63.638c-5.863 5.863-5.863 15.352 0 21.215l21.213 21.213c5.863 5.863 15.352 5.863 21.213 0l63.64-63.64 63.64 63.64c5.861 5.863 15.35 5.863 21.213 0l21.213-21.213c5.863-5.863 5.863-15.352 0-21.215z" fill="#ecf7fe"/><path d="m340.853 301.066 21.213-21.213c5.863-5.863 5.863-15.352 0-21.215l-63.64-63.638 63.64-63.64c5.863-5.863 5.863-15.35 0-21.213l-21.213-21.213c-5.863-5.863-15.352-5.863-21.213 0l-63.64 63.639v84.853l63.64 63.64c5.861 5.863 15.35 5.863 21.213 0z" fill="#dce7f5"/></g></g></svg>