<svg id="Capa_1" enable-background="new 0 0 512 512" height="512" viewBox="0 0 512 512" width="512" xmlns="http://www.w3.org/2000/svg"><g><g><g><g><g><g><g><path d="m373.441 512h-234.882c-22.758 0-41.207-18.449-41.207-41.207v-429.586c0-22.758 18.449-41.207 41.207-41.207h234.881c22.758 0 41.207 18.449 41.207 41.207v429.586c.001 22.758-18.448 41.207-41.206 41.207z" fill="#3d6d93"/><path d="m373.441 0h-30.905c22.758 0 41.207 18.449 41.207 41.207v429.586c0 22.758-18.449 41.207-41.207 41.207h30.905c22.758 0 41.207-18.449 41.207-41.207v-429.586c0-22.758-18.449-41.207-41.207-41.207z" fill="#335e80"/><path d="m331.67 39.147c0 7.692-6.235 13.927-13.927 13.927h-123.486c-7.692 0-13.927-6.235-13.927-13.927 0-4.552-3.69-8.241-8.241-8.241h-28.379c-8.534 0-15.453 6.918-15.453 15.453v419.284c0 8.534 6.918 15.453 15.453 15.453h224.58c8.534 0 15.453-6.918 15.453-15.453v-419.285c0-8.534-6.918-15.453-15.453-15.453h-28.379c-4.551 0-8.241 3.69-8.241 8.242z" fill="#f9f7f8"/></g><circle cx="256" cy="26.537" fill="#335e80" r="7.726"/></g></g></g></g></g><g><path d="m151.495 223.975h-131.769c-10.894 0-19.726-8.832-19.726-19.726v-97.383c0-10.894 8.832-19.726 19.726-19.726h42.289c4.022 0 7.823 1.84 10.317 4.996l11.086 14.024c2.494 3.155 6.295 4.996 10.317 4.996h57.761c10.894 0 19.726 8.832 19.726 19.726v73.367c-.001 10.894-8.832 19.726-19.727 19.726z" fill="#ffe179"/><g fill="#fbd268"><path d="m151.495 111.156h-30.905c10.894 0 19.726 8.832 19.726 19.726v73.367c0 10.894-8.831 19.726-19.726 19.726h30.905c10.894 0 19.726-8.831 19.726-19.726v-73.367c0-10.895-8.831-19.726-19.726-19.726z"/><path d="m41.426 92.136 11.086 14.024c2.494 3.155 6.295 4.996 10.317 4.996h30.905c-4.022 0-7.822-1.84-10.317-4.996l-11.085-14.024c-2.494-3.155-6.295-4.995-10.317-4.995h-30.905c4.022-.001 7.822 1.839 10.316 4.995z"/></g><path d="m211.275 167.173 38.172-38.173c4.154-4.154 11.256-1.212 11.256 4.663v9.59c0 2.2 1.799 3.984 4 3.955.36-.005.72-.007 1.08-.007 43.998 0 79.667 35.668 79.667 79.667v.13c-.004 2.297-3.213 2.865-4.038.722-7.607-19.784-26.788-33.825-49.254-33.825-11.014 0-21.238 3.376-29.697 9.147-1.092.745-1.758 1.97-1.758 3.292v10.514c0 5.874-7.102 8.816-11.256 4.663l-38.172-38.172c-4.463-4.466-4.463-11.703 0-16.166z" fill="#aee69c"/><path d="m284.228 171.033c7.892 8.016 12.889 16.472 16.075 23.487 18.874 2.925 34.44 15.854 41.109 33.198.824 2.144 4.034 1.575 4.037-.721 0-.043 0-.086 0-.13 0-43.998-35.668-79.667-79.667-79.667-.36 0-.72.002-1.08.007-2.2.029-4-1.754-4-3.955v-9.59c0-5.874-7.102-8.816-11.256-4.663l-17.664 17.664c7.638.709 32.372 3.98 52.446 24.37z" fill="#89daa4"/></g><g><path d="m492.274 424.86h-131.769c-10.894 0-19.726-8.832-19.726-19.726v-97.383c0-10.894 8.832-19.726 19.726-19.726h42.289c4.022 0 7.823 1.84 10.317 4.996l11.086 14.024c2.494 3.155 6.295 4.996 10.317 4.996h57.761c10.894 0 19.726 8.832 19.726 19.726v73.367c-.001 10.894-8.833 19.726-19.727 19.726z" fill="#ffe179"/><g fill="#fbd268"><path d="m492.274 312.041h-30.905c10.894 0 19.726 8.832 19.726 19.726v73.367c0 10.894-8.831 19.726-19.726 19.726h30.905c10.894 0 19.726-8.832 19.726-19.726v-73.367c0-10.895-8.831-19.726-19.726-19.726z"/><path d="m382.205 293.021 11.086 14.024c2.494 3.155 6.295 4.995 10.317 4.995h30.905c-4.022 0-7.822-1.84-10.317-4.995l-11.086-14.024c-2.494-3.155-6.295-4.995-10.316-4.995h-30.905c4.021-.001 7.822 1.84 10.316 4.995z"/></g><path d="m300.725 368.205-38.172 38.172c-4.154 4.154-11.256 1.212-11.256-4.663v-9.59c0-2.2-1.799-3.984-4-3.955-.36.005-.72.007-1.08.007-43.998 0-79.667-35.668-79.667-79.667 0-.043 0-.086 0-.13.004-2.297 3.213-2.865 4.038-.722 7.607 19.784 26.788 33.825 49.254 33.825 11.014 0 21.238-3.376 29.697-9.147 1.092-.745 1.758-1.97 1.758-3.292v-10.514c0-5.874 7.102-8.816 11.256-4.663l38.172 38.172c4.463 4.467 4.463 11.704 0 16.167z" fill="#8fd8fa"/><g><path d="m300.725 352.042-38.172-38.172c-4.154-4.154-11.256-1.212-11.256 4.662v10.514c0 1.183-.537 2.287-1.433 3.04l19.956 19.956c4.463 4.463 4.463 11.7 0 16.163l-20.508 20.508c1.18.684 1.985 1.949 1.985 3.412v9.59c0 5.875 7.102 8.816 11.256 4.662l38.172-38.172c4.463-4.463 4.463-11.7 0-16.163z" fill="#6bcdfe"/></g></g></g></svg>